/* XPM */
static char *_ade04c2253d49f0c50009fe84cd6781KZObba7o5QF1sVxI[] = {
/* columns rows colors chars-per-pixel */
"32 32 74 1 ",
"  c #463E33",
". c #474135",
"X c #4A4235",
"o c #4E453A",
"O c #50473B",
"+ c #534A3D",
"@ c #584E3F",
"# c #564D42",
"$ c #594F43",
"% c #575044",
"& c #5B5246",
"* c #5D5549",
"= c #5F584B",
"- c #615646",
"; c #61574A",
": c #635A4D",
"> c #695D4E",
", c #655C51",
"< c #695F53",
"1 c #6C614F",
"2 c #6C6254",
"3 c #6D6459",
"4 c #6F685E",
"5 c #716456",
"6 c #716856",
"7 c #70675F",
"8 c #73685A",
"9 c #75695B",
"0 c #776A5B",
"q c #776C5B",
"w c #70685C",
"e c #70685F",
"r c #766B5E",
"t c #766C5F",
"y c #786B5B",
"u c #786C5D",
"i c #7A6E5D",
"p c #7F725E",
"a c #736960",
"s c #746D61",
"d c #776D62",
"f c #7A6E61",
"g c #7A6F64",
"h c #777065",
"j c #7A7161",
"k c #7D7162",
"l c #7A7267",
"z c #7C7167",
"x c #7F7566",
"c c #7B7368",
"v c #7D7569",
"b c #7F766C",
"n c #81715C",
"m c #817565",
"M c #807566",
"N c #857867",
"B c #81776A",
"V c #84776A",
"C c #80776C",
"Z c #81786A",
"A c #84786A",
"S c #837A6E",
"D c #847A6C",
"F c #867C6D",
"G c #8A7E6E",
"H c #837C70",
"J c #847C70",
"K c #897F70",
"L c #8A8173",
"P c #8E8274",
"I c #8E8476",
"U c #8F887A",
"Y c #918473",
"T c #948A7E",
/* pixels */
"2Cv&3H$9O:fBzs>,3DF:8>%>5-#&O:;*",
"3wv#wv,u<&rBvt2<2Vb89::2w;**@:-*",
"l,v&3<,yw&3kvz&<9Au59&<*2;=&+;,*",
"wwS#3w32wowKtl;wtx2wko:*2*&:#:2=",
"w3SOa4<59+3Uxswrkj<5x$:*2**:#;*&",
"l3v<,sz9w#uLZw:gfV;2wO:&>*-,*2>%",
"w33<w,*2t,MKP222jG>55#2*2-:2&*:%",
"s2<<c,,2M*rBIw*w8M>8r;2*<;>3#%*;",
"a3:,a3<rr&3Mx,2,<M2q3$>*<O>:$*-$",
"w2::w7,wN,$Fx<l,*G2x6*2:-+,2@O>$",
"33=wvJ-9k:2LT;<*:Y:g5*5&-#*-$O;+",
"4w,-xs2:3,-PI,9w$G:A2,3O:$&:*O&+",
"2s;w822<23*BP:ww&u*k2<@22&&**O#@",
"2s:w222>fawwK:ts$c#74w&22#o;;O&O",
",h:rwZ*,8rw82:f2*f2o&,$wk;#:**#X",
",,223s*92w2frrf2&Mkk2:&>9:&3=%oO",
"#<4l3s,8*w5MAkw2&kkxt-,t::#2##%O",
"#,2as3;:*u:ss2r22u9f2-;k<:o*#**#",
"#<;g2;:2*9:l292-,9f,t>:u22.,:*&#",
"#2&43-8<:w2wBww*,Mfuu,,u5< $&>*#",
"#*:l7*s3<2,vDts*,pGMZ*,,::X;&,##",
"#,,vw#ws28:fzDB*2MMMu$&2;2#&,:=&",
"O,&2w:2l:<=kAKg-2kMM9&&22:o&$2**",
"&,2*2*3f&:wzAZw;2upu2O&>5:o#,2*&",
"#,l2-&ww,>2:TFl:r5n2>&:;2:X#2;*#",
"#&vs2$as$>w9fDs-x5u><O-r2&o*21%$",
"&,lws:f3::w8,Zr-f>M;w#;w62@Ow;&@",
"&wsta,fz--a92,2k91<:$o&>22#%Ow&O",
"=323#2fD+:2f9w*wzM2-2@@-9<*&o+2@",
",w2,<33s#,2swu:9Bu826---8>:O@>Oo",
",rt*<33w*wrv9j2>MMB2>:O-2>XOX;>;",
";sv*22<r&2uvzM7:MM2>-2o22;O+O>;:"
};
