/* XPM */
static char *_5049d65ddc04e0deec4d774f34ce6a7yJ4sjEsE3mBifa5M[] = {
/* columns rows colors chars-per-pixel */
"32 32 163 2 ",
"   c None",
".  c #1E1E1D",
"X  c #1F231F",
"o  c #20231F",
"O  c #232523",
"+  c #262825",
"@  c #292C27",
"#  c #2B2D2A",
"$  c #2E312D",
"%  c #30312F",
"&  c #343534",
"*  c #363A35",
"=  c #393B37",
"-  c #3D3D3D",
";  c #3E433D",
":  c #40423F",
">  c gray25",
",  c #454B43",
"<  c #494B44",
"1  c #4C4D4C",
"2  c #4A5247",
"3  c #4D524A",
"4  c #51544E",
"5  c #53594F",
"6  c #535452",
"7  c #565A53",
"8  c #585B56",
"9  c #5B5B5A",
"0  c #5B6157",
"q  c #5D625B",
"w  c #5D685C",
"e  c #60625E",
"r  c #60695D",
"t  c #636463",
"y  c #666964",
"u  c #696D65",
"i  c #6C6D6B",
"p  c #667065",
"a  c #6B7166",
"s  c #6D726B",
"d  c #70736E",
"f  c #747C6F",
"g  c #737473",
"h  c #747C73",
"j  c #797B75",
"k  c #7B7C7A",
"l  c #738174",
"z  c #798076",
"x  c #7D837B",
"c  c #7D897E",
"v  c #838482",
"b  c #858985",
"n  c #8D8D87",
"m  c #8A8B89",
"M  c #849784",
"N  c #8D9787",
"B  c #8E938A",
"V  c #8D9B8C",
"C  c #939C8F",
"Z  c #999E8E",
"A  c #949593",
"S  c #959B92",
"D  c #999E95",
"F  c #9C9D9B",
"G  c #95A192",
"H  c #9BA397",
"J  c #9AAA95",
"K  c #9DA29B",
"L  c #9DAB9D",
"P  c #A2A795",
"I  c #A1A49D",
"U  c #A3AB9D",
"Y  c #AAAE9E",
"T  c #9FA3A0",
"R  c #A4A4A3",
"E  c #A6ABA4",
"W  c #AAACA4",
"Q  c #ABACAB",
"!  c #A7B1A5",
"~  c #ABB2A4",
"^  c #A8BBA7",
"/  c #A7B3A8",
"(  c #ADB2AB",
")  c #ABBAAB",
"_  c #B3B4AB",
"`  c #BBBAAF",
"'  c #B4B4B3",
"]  c #B4BAB2",
"[  c #B9BCB6",
"{  c #BBBCBB",
"}  c #B3C1B4",
"|  c #BAC4B4",
" . c #BFC9B5",
".. c #B7C2B8",
"X. c #BCC2BA",
"o. c #BDCABC",
"O. c #C3C7BE",
"+. c #C0C4BF",
"@. c #C1C5BE",
"#. c #C4CDBD",
"$. c #D2D1BB",
"%. c #BFC4C0",
"&. c #C1C1C1",
"*. c #C3C3C3",
"=. c #C6C6C6",
"-. c #C3C4C3",
";. c #C3C8C2",
":. c #C6C8C3",
">. c #C4CBC2",
",. c #C3CBC3",
"<. c #CACBC5",
"1. c #C8CEC5",
"2. c #CACEC7",
"3. c #CCC7C8",
"4. c #C9C9C9",
"5. c #C9CFC9",
"6. c #CCCFC8",
"7. c #CDCDCB",
"8. c #CDCDCD",
"9. c gray80",
"0. c gray81",
"q. c #CBCCCB",
"w. c #C3D2C2",
"e. c #CAD4C5",
"r. c #CDD0CB",
"t. c #CBD5CC",
"y. c #CCD3CB",
"u. c #CBDECE",
"i. c #CDD9CD",
"p. c #D1D5C3",
"a. c #D0D8C6",
"s. c #D0D0CB",
"d. c #D0D3CC",
"f. c #D1D5CE",
"g. c #D4D4CE",
"h. c #D1D3CF",
"j. c #D3DBCA",
"k. c #D8D8CB",
"l. c #CDD3D0",
"z. c #CFD3D0",
"x. c gray82",
"c. c #D0D3D1",
"v. c LightGray",
"b. c #D2D2D2",
"n. c #D5D7D1",
"m. c #D5D5D5",
"M. c #D3D4D3",
"N. c #D2DBD2",
"B. c #D6DBD7",
"V. c #D3DBD4",
"C. c #D9DCD3",
"Z. c #D9D9D8",
"A. c #DADADA",
"S. c #DCDDDA",
"D. c #DCDCDB",
"F. c #DBE2CE",
"G. c #D6E2D6",
"H. c #DAE4D3",
"J. c #D9E1D4",
"K. c #DCE0DA",
"L. c #DEE1DC",
"P. c #E3EBDA",
"I. c #E2E3E2",
/* pixels */
"  = n.Q X.g.5 F P F 0.<.r.    i ' 7 i Q R   ,.+     E } { ' s   ",
"k   A b.Q d.9 0.Q 4.# 7 6 D   q e   -.Q s.  (   b 8 * } [ < I ! ",
"B.9   i 6.m.d K 5.L # + F E ' e g 9 ;.4.8     F u.i + { ( 8 ( R ",
"m.j     7 O.A K d o.C D K [ U R 8 9 ;.7 d 8 g W ..2.  A 8 1 X.Q ",
"E j     A % # s k i   A 9 ' R ' A i A # F t v 6.K N.7 t 1 K 6 K.",
"&.4 B n.F 7 @ y _ (   8 5   [ { S I   + A C i 9 t.z.1 3 I F s j ",
"s ; b.Q Z.s t   ( K F 7 6     &.9 F K F R F = * j g.n   W R j j ",
"  3 F Z.3.0.j y 5.( 0.x   K E y y F 8 U T   = : S g m   ' Q y y ",
"o.8 3   n J.k u E S.O.a i ( Q   t.R q G   # 8 b A F   7 7 R - ' ",
"b.(   K K 8 a y   b.H.g k C A Z.Q Q 8 q   x i 4 u A 3 9 1 ; - b.",
"D.m.  F U   i -.A m ,.> j t d.-.[ 6.B 3 V Z j i | ) Q # h   * Q ",
"i 5.d K &   ,._ #.h g #     Z.-.S.R K K E R h I.' Q ;.k O.Q v x ",
"8 g s - & < 4.4.* & 9 F     I.C.b F K R 2   m.] K.S.+ r.Q #.v b ",
"  s 6 - k b ,.S F O S &.{   M.g c y K 6 i s F.#.u   + e.,.7 z + ",
"r   & F N x A j a G { W { Q   0 w R A i g b.e.+   6   e.i 6   S ",
"'     G Q   Q 0., K { K Q y C     [ Q g.j 7     l a   9 @ #   Q ",
"y 8 3 9 S   i.(     ) [ j i R     0.' +.r.t I i.R d   o O     0 ",
"y   8 t h   F   9 v { F 8 t ] R 8   2. .S.A N.[ Z.u X 0.A g   7 ",
"7   $ R Q     7 g A D * O ( b.Y e d   d.S.g 3 I.S.5 b.R %.k *   ",
"    c 2.d.x k x U q.  O v j._ 0.i K     z.* s g I.A p.b.j g F -.",
"{ 8 v m.4.k h g 4.[ y.j k j.w.k 8 R     8 R R y 7 M 0.t p * ' R ",
"o.k   e.y d 9 x & b.V.j . j.b j D S $.& h S W F F *   m <   | H ",
"[ z s O O O ~ { E k m.  $ j i G R e.R b.g s t   * S w.m v     O.",
"&.a i O O   m.W X.k t   i $ b F   S g.6.O.g g b - H ..-.  + O B ",
"$ $ b A   o.{ i.k k   s h { ..W $ j i   4.j u F & k.[ g.i s 8   ",
"* [ [ B   Z.I.8 s y f h t ,.Q S.g     + @ w t A   t.' L.d i g = ",
"r.S.4.i O I.R A O 4.[ [ 6   0.[ j y   Z +   m B * t D.I.V i t v ",
"b.0.4.+ # 4 7 q S.[ ' n 9 j H ,.s u S w.F   & F [ t 7 M.X   ; R ",
"e.o.K @ u   9 e.4.P.F.a 7 x     u 5 N.( y.8 6 -.[ ^ A u     % 5.",
"O.x 7 j S 2 & B.0.    8 6 m.  I   N G.Z.7 e [ i.] Z.S j R   O ;.",
"1 i Q K 6 j # b.  2   v y.Q 5.J Q   V.t 8 e V.| Z.j B A ` W   Q ",
"  * [ 4.b.g     6 7   U E a.0.m.I     t 9   Z.m.g e / ' ;.{ g @ "
};
