/* XPM */
static char *deepslate_redstone_ore1689669696[] = {
/* columns rows colors chars-per-pixel */
"32 32 16 1 ",
"  c #FF8989",
". c #FD5E5E",
"X c #797979",
"o c #845959",
"O c #646464",
"+ c #F71C1C",
"@ c #515151",
"# c red",
"$ c #CA0707",
"% c #C60404",
"& c #3D3D43",
"* c #4D3737",
"= c #960606",
"- c #3B2C2C",
"; c #2F2F37",
": c #970303",
/* pixels */
"OXOO@OO@@@&&&;&&OOOOOO@&&@@&@@@O",
"XOO@O@@@@&@@&&&@O@OOO@O@@@&&@@@@",
"O@@@@&;;&&&;;&&&@OX@@@@@&@&;@&&@",
"&@&&;;&;;&&&&&;&@@OO@@@&@;;;&@&&",
"@OOOXXOOO@O@@&&;;&@@&;;;;&;&&&&@",
"O@@OOXO@OO@*---;&&;;;&@&&;;;;;&&",
"&@&@OXOO@**====--@OOXXXXOO@&&@@&",
"&;@@OO***==$=$$==-**OOXXXOOO@O@@",
";;;&&*==$$+$#$.#%:%:*OXOOOO@@&&@",
"&@@&@@o$$=$+. ..+%:o@OXO**---@@;",
"XXXOO@@o$%#.+. %ooOO@@O*==++$o@O",
"OXXX@@OOoo+.  .oO@O&&@O@o$$oo@OO",
"OXOOOO@@@Oooooo@@@@@@&&@&oo;&&@@",
"OX@OO@O@@@;;;@&&&@@@&&;;&;;&&@&@",
"@XO@@@&@&&;&@XOXOO@O@*----&;&O@@",
"@*-*---&&&&&OOXXXO**-=====--**@@",
"*====$$-&&;;@OXOO*===$=$#$#+$#*@",
"@o$+...=-&&@@@XOOOo=#$$+$+..+o&@",
"&@=$.+oo@@OO@@OO@&@oo+.. . .o&&;",
"&&o=#o;;@O@@@@O@&@@@&@+   oo;;;&",
"OO@oo@@&&@@@&@@@@&&&;;&ooo@&XXOX",
"O@OXOO@@;;&@@@&&;&;;;&;&&@@OOXXO",
"OOOO@@@&@OXXOXXO@@&&@&&&@&@@OXOO",
"@OO@@&@--******-O@O&&*----@@OXOO",
"O@@O&@-===$$#$$=*O@@&-==$$*@@OOO",
"@O@@&-==$#+$$+=o@O@&&&o$+o@@O@OO",
"&@&&&;;o$. ..+o@O@&@&;&oo;&;&@@&",
"&&&;&&;;o+. ooO@@@&&;;;&&;;;;;&&",
"OXXXO@@O@ooo&;;;&&&@XXO@&&&;&@@X",
"XXXOOOOOO&@@&&;&&@XXO@@O@@&@@OOO",
"OXOOO@O@@O@@@@&;@@OXOOO@@@@@OOOO",
"OXXOOO@@O@@&@&;;@OOXOOOO@OO@O@O@"
};
