/* XPM */
static char *deepslate_copper_ore1689669696[] = {
/* columns rows colors chars-per-pixel */
"32 32 13 1 ",
"  c #F38268",
". c #4FBA98",
"X c #E0734D",
"o c #599581",
"O c #C16746",
"+ c #818058",
"@ c #797979",
"# c #646464",
"$ c #3A7663",
"% c #3A685A",
"& c #515151",
"* c #3D3D43",
"= c #2F2F37",
/* pixels */
"#@##&##&&&***=**######&**&&*&&&#",
"@##&#&&&&*&&***&#&###&#&&&**&&&&",
"#&&&&*==***==***&#@&&&&&*&*=&**&",
"*&**==*==*****=*&&##&&&=====*&**",
"&###=oo$#&#&&**==*&&*==X O=****&",
"#&&#$$%@##&&&&*=**===*X OO@===**",
"*&*&#@@#&**$$***&&##@@@O@@&**&&*",
"*=&&##&&&&$$+$$&&#@###@@@###&#&&",
"===**#&&*$+XO+OO+&@###@####&&**&",
"*&&*&&&$$++OX  +++##&#@##&&#&&&=",
"@@@##&$++OX   X X@##&&#&#&#&&#&#",
"#@@@&&#$O+OX X@@#&#**&*===**&&##",
"#@####&#@@@@@#*&&&&&*==$+$==**&&",
"#@&##&#&&&===&***&&*=$+oo++**&*&",
"&@#&&&*&**=*&@#@#*&=$o.o.oOO=#&&",
"&#&&********##@@@**#o...o+OXO*&&",
"&&*&&*$$$*==&#@##&###$oooX  XO&&",
"&***&$$o+$+&&&@###&&#@$o++XXO@*&",
"*&*$$o..o+++&&##&*&&&#@$$@@@@#*=",
"**$$o.o..oo@&&#&*&&&*&#@@##@#*=*",
"##&$$o.oo@@&*&&&&***==****&#@@#@",
"#&#@@$oo@@@#&*==**===*=**&&##@@#",
"####&@@@&#@@##+O=***&***&*&&#@##",
"&##&&*&*####$oOXO==**&***&&&#@##",
"#&&#*&**#*=$o+X  XO=*&*=====*###",
"&#&&*$$$&*$$+XOX  XO&****=$$=*##",
"*&*$$+++@&#$$++X+$$#*=**=$o..o&*",
"***=$$+@==&##$++$@@*===**@$o.@**",
"#@@@#@@#&&**&@@@@#*&@@#&**@@@&&@",
"@@@######*&&**=**&@@#&&#&&*&&###",
"#@###&#&&#&&&&*=&&#@###&&&&&####",
"#@@###&&#&&*&*==&##@####&##&#&#&"
};
