/* XPM */
static char *deepslate_iron_ore1689669696[] = {
/* columns rows colors chars-per-pixel */
"32 32 10 1 ",
"  c #E2C0AA",
". c #D8AF93",
"X c #AF8E77",
"o c #797979",
"O c #887455",
"+ c #77674F",
"@ c #646464",
"# c #515151",
"$ c #3D3D43",
"% c #2F2F37",
/* pixels */
"@o@@#@@###$$$%$$@@@@@@#$$##$###@",
"o@@#@####$##$$$#@#@@@#$%%%%$####",
"@####$%%$$$%%$$$#@o#$%%++O++#$$#",
"$#$$%%$%%$$$$$%$##@$++OOXXOo$#$$",
"#@@@ooOOOOO##$$%%$##@oOXXoo$$$$#",
"@##@OOXXXO@###$%$$%%%$ooo%%%%%$$",
"$#OOXX..oo$#$$$$##@@oooo@@#$$##$",
"$%@OO..o@#$$$%#%%$$$$$$$$@@@#@##",
"%%%@ooo#$$$$%$%OOOOOOOOOO$@##$$#",
"$##$###$$%%%OOOXX.XX.XXOo##@###%",
"ooo@@###%OOOX...  ...Xoo@#@OXO#@",
"@ooo##@$OOXX..  .  .Xo@###OXX#@@",
"@o@@@@##@ooOXX.  .ooo@$#$$%%$$##",
"@o#@@#@###%ooooooo@#$$%%$%%$$#$#",
"#o@###$#$$%$#o@o@@#@##$$%%$%$@##",
"#@##$$$$$$$$@@ooo@$$%%#$$$%$####",
"##$##$%%%%$%#@o@@#++O+%%%$$$$###",
"#$$%%%++OO%%%#o@@@@+X.OOOX%$$$$#",
"$#%++OOXX..XX%@@#$#oOX..Xo@%$$$%",
"$$$@++XX.   . .#$###oo.Xo@%%%%%$",
"@@#$@oooX. .ooo##$$$%@oo$$#$oo@o",
"@#@o@@##oooo##$$%$%%%$#$$##@@oo@",
"@@@@###$#@oo@oo@##$$#$%%%$$#@o@@",
"#@@##$#$@@@oo@@o@#$%%%++OO%%$$@@",
"@##@$#$$@#OXO@@@$%%+OXXX.XXOOO$@",
"#$%%%$$#OOXXo@@$++OOX.X. ..Xo@#@",
"$+++O%%%$ooo@@##@oOX.   .Xoo$##$",
"$@OXXX%%%%$#@@@##@ooX..ooo@%%%$$",
"@oooOXO+$#$$$%%%$$$#ooo#$$$%$##o",
"ooo@oooo@$##$$%$$#oo@##@##$##@@@",
"@o@@@#@##@####$%##@o@@@#####@@@@",
"@oo@@@##@##$#$%%#@@o@@@@#@@#@#@#"
};
