/* XPM */
static char *deepslate_lapis_ore1689669696[] = {
/* columns rows colors chars-per-pixel */
"32 32 13 1 ",
"  c #6995F4",
". c #797979",
"X c #446FDC",
"o c #646464",
"O c #515151",
"+ c #1855BD",
"@ c #20598B",
"# c #1044AC",
"$ c #16448D",
"% c #3D3D43",
"& c #1034BD",
"* c #10349C",
"= c #2F2F37",
/* pixels */
"o.ooOooOOO%%%=%%ooooooO%%OO%OOOo",
".ooOoOOOO%OO%%%OoOoooOoOOO%%OOOO",
"oOOOO%====%==%%%Oo.OOOOO%O%=O%%O",
"%O%%==%=$###%%=%OOooOOO%O=$$%O%%",
"Oooo=@##++$$#O%==%OO%====&X+$%%O",
"oOO%@#@+$XX+#o==$$===%O%&+XX.=%%",
"%O%Oo.o.+#++.%$$XX$o....&$+.%OO%",
"%=OOooOo.+#.o$+XX+.ooo...oooOoOO",
"===%%oOO%..o=.$+..oooo.ooooOO%%O",
"%OO%OOO%%%==%Oo.ooooO%%ooOOoOOO=",
"...ooOO%==#+##%%OoO%=&&OoOoOOoOo",
"o...OO%=#+XXX+#%oO%=&@X&OOO%OOoo",
"o.oooo%&X X XX$$OO%@XX +oO==%%OO",
"o.O%%Oo#+X  +X+$%OO.+ X.oO%=%O%O",
"O%=##%%..+X+.++.ooOo...oO%%==oOO",
"%=#X +%%%...ooO%.%===%%O%%=%OOOO",
"%+X  Xo=%%==O%#&%=$$$$$%%%%%%OOO",
"Oo+ X.O%%%%O%&+#&$++$+$$o====%%O",
"%Oo..o%%OOoo%#+++XXXXX+$o%=#@=%=",
"%%%%O%%=$oOOO.#+X#XX +$$o=#+#==%",
"ooO%%==*#$OO%O.&&++ X++.O=#X+@=.",
"oOo.*$*#+#$OOO%.&&X+o..O%=+X@@Oo",
"ooo$$#++#*..o..o..oO%%%%=#X X+%o",
"Oooo.$#*.o%%%oooO%$++$=%O# X Xoo",
"oOOo%...o%**+%oO%$X+X++Oo&+  &.O",
"OoOO%%%O%*+XX%o%$$+X &.%oo&XX+.o",
"%O%%%==%++  X+O%$X  X&.%Oo.+&.O%",
"%%%=%%=%X X +$oO.+X +.o%%Oo..=%%",
"o...oOOo+X X+$.=%.....OO%%%=%OO.",
"...ooooo.++$$.o%%O..oOOoOO%OOooo",
"o.oooOoOOo...o%=OOo.oooOOOOOoooo",
"o..oooOOoOO%O%==Ooo.ooooOooOoOoO"
};
