/* XPM */
static char *deepslate_gold_ore1689669696[] = {
/* columns rows colors chars-per-pixel */
"32 32 9 1 ",
"  c #FFFFB5",
". c #FCEE4B",
"X c #EB9D0E",
"o c #797979",
"O c #9C6420",
"+ c #646464",
"@ c #515151",
"# c #3D3D43",
"$ c #2F2F37",
/* pixels */
"+o++@++@@@###$##++++++@##@@#@@@+",
"o++@+@@@$$@@###@+@+++@+@@@##@@@@",
"+@@@@#$$OX#$$###@+o@@@@@#@#$@##@",
"#@##$$#OXXo###$$#@++@@@#@$$$$@##",
"@+++oo++Oo+@#$OO$#@@#$$$$$$OO$#@",
"+@@++o+@++@#$OOOO#$$$#@#$OOXOO##",
"#@#@+o++@##$OOXXO$++ooo$OOX.XO+#",
"#$@@++@@@@#$OXX.XOo+++o#OOX..X+@",
"$$$##+@@#$$OXX.X.OO+++o#OX..Xo#@",
"#@@#@@@#$OOXX. ..XO+@+o+oOXOo+@$",
"ooo++@@#OOX..   .XO+@@+@++oo+@@+",
"+ooo@@+#OOX. .. .Oo##@+@@@+#@@++",
"+o++++@@+OXX. ..XOo@@##@##$$##@@",
"+o@++@+@@oOXX.XXOo+@##$$#$$##@#@",
"@o+@@@#@#+oX.XOo++@+@@##$$#OXO@@",
"@+@@#$$$##+OXOooo++@+@@###OX.@@@",
"@@@#$OXO$#@+OOo++@@@++@@#####@@@",
"@##$OXX.X##+Ooo+++@++@@##$$####@",
"#@#OX...X@++o@++@#@@@#@@##$$###$",
"###+OX.Xo+@@@@+@#@@#$$$$#$$$$$$#",
"++@#oooo#@@@#@@@@##$OOOOO$$#oo+o",
"+@+o++@@$$#@@@##$#$OOOXXXOO$#oo+",
"++++@@@#@+oo+oo+@#OOXX.X ..XO#++",
"@++@@#$$$#+oo+##+#OXX.X.  ..XO++",
"+@@+#$OOOO#o+#OOo+@OX..  .XX@+++",
"@+@#OOXX.XO#+OXo@+@oOX...Xoo+@++",
"#@#OXOX.  .O++o@+@#+OXXXoo+$#@@#",
"###$OX. . .X+++@@@##oOXo+$$$$$##",
"+oooooX...X+#$$$###@+oo+###$OO@o",
"ooo+++oXXXo@##$##@oo+@@+@@#OXX++",
"+o+++@+oo+@@@@#$@@+oo++@@@@+Xo++",
"+oo+++@@+@@#@#$$@++o++++@++@o@+@"
};
