/* XPM */
static char *deepslate_emerald_ore1689669696[] = {
/* columns rows colors chars-per-pixel */
"32 32 12 1 ",
"  c #D9FFEB",
". c #41F384",
"X c #17DD62",
"o c #17C544",
"O c #797979",
"+ c #1C9829",
"@ c #646464",
"# c #515151",
"$ c #375B3E",
"% c #007B18",
"& c #3D3D43",
"* c #2F2F37",
/* pixels */
"@O@@#@@###&&&*&&@@@@@@#&&##&###@",
"O@@#@####&##&&&#@#@@@#@###&&####",
"@####&**&&&**&&&#@O#####&#&*#&&#",
"&#&&**&**&&&&&*&##@@&**&#***&#&&",
"#@@*$.o@@#@##&&**&#&$.o**&*&&&&#",
"@##*. X+@@####&*&&**. X+&*****&&",
"&#&&oX%+O&&#&&&&##@#oX%+@@#&&##&",
"&*##@++O##&&&*###@O@O++OO@@@#@##",
"***&&@O#&&&&*&&#@#O@@OO@@@@##&&#",
"&##&###&&#*$$$&#@@@@#@O@@##@###*",
"OOO@@###&*ooooo&#@@@##@#@#@##@#@",
"@OOO##@&$o..o+++$#@&&#@####&##@@",
"@O@@@@#&o.. +%%+#$###&&#&&**&&##",
"@O#@@#&$o.  .+%%$$##&&**&**&*#&#",
"#O@###&$oo+.%%+o$@#@##&&**$.o@##",
"#@#&&&&$o+%+%+oOO@@#@##&&*. X+##",
"##&.o&&@o++%+OO@@###@@##&*oX%+##",
"#&. X+*&Oo++O@O@@@#@@##&&#@++O&#",
"&#oX%+O&@OOO@#@@#&###&##&&#OO#&*",
"&&O++O@*#@####@#&##&***&&*&##**&",
"@@#OO##&&###&####&*ooo$*&&#&OO@O",
"@#@O@@##**&###&&**o...+$*##@@OO@",
"@@@@###&#@OO@OO@#o.. o%%+&##@O@@",
"#@@##&#&@@@OO@@O.o.  .+%%+##@O@@",
"@##@&#&&@#@O@@@@oo++o%%%%+&##@@@",
"#@##&&&##&&#@@@@O%+%+%%+oO##@#@@",
"&#&&&***&.o&@@##@$$+%%+OO*&*&##&",
"&&&*&&**. X+#@@###@$++O&&*****&&",
"@OOO@##&oX%+O#**&&#@OO@#&&&*&##O",
"OOO@@@@@@++O&&*&&#OO@##@##&##@@@",
"@O@@@#@##OO###&*##@O@@@#####@@@@",
"@OO@@@##@##&#&**#@@O@@@@#@@#@#@#"
};
