/* XPM */
static char *deepslate_diamond_ore1689669696[] = {
/* columns rows colors chars-per-pixel */
"32 32 12 1 ",
"  c #D5FFF6",
". c #77E7D1",
"X c #1ED0D6",
"o c #648A8C",
"O c #797979",
"+ c #239698",
"@ c #617977",
"# c #646464",
"$ c #515151",
"% c #3D3D43",
"& c #314040",
"* c #2F2F37",
/* pixels */
"#O##$##$$$%%%*%%######$%%$$%$$$#",
"O##$#$$$$%$$%%%$#$###$#$$$%%$$$$",
"#$$$$%**%%%**%%%$#O$$$$$%$%*$%%$",
"%$%%**%**%%%%%*%$$##$$$%$&&*%$%%",
"$###OO##&&#$$%%**%$$%***&.X&%%%$",
"#$$##O#& .$$$$%&&%***%$%. .X**%%",
"%$%$#O##X+%$%%&.X&##OOOO#X++o$$%",
"%*$$##$$o$%%%*. .X+###OOO#oo$#$$",
"***%%#$$%%%%*%oX++O###O####$$%%$",
"%$$%$$$%%$%%%%%$o###$#O##$$#$$$*",
"OOO##$$$$&&.X+%%$###$.X$#$#$$#$#",
"#OOO$$#&&.  .X+@#$#%. .+$$$%$$##",
"#O###@X. ..XX+++@@$$X.X+@%**%%$$",
"#O$##$@oX.X++X+o@$$$@++@%**%%$%$",
"$O#$$$%$@@ooo@@O#&$#$oo%**%*%#$$",
"$#$$&&%%%%%%##OO&&&$#$$%%%*%$$$$",
"$$%. .&&%%**$#&&&. X&#$$%%%%%$$$",
"$%. .XX+@%%$$&&..  .X+$%%**%%%%$",
"%$@X+++@$$##$$.X .X.X++@%%**%%%*",
"%%%@oo@*$&&$$$#@X++X+o@$%******%",
"##$%%$$%&..&%$$$@@ooo@%%%%$%OO#O",
"#$#O##$&. X+$$%%*%***%*&&&$##OO#",
"####$$$%oX+@#OO#$$%%&%&X++&$#O##",
"$##$$%$%#ooOO##O#$&&&&..X++&#O##",
"#$$#%$%%#$#O#####&.  ..XXX++@###",
"$#$$%%%&&##O###@X.  .XXX+++@#$##",
"%$%%%*&X.&$###$$@X..X++oo@@*%$$%",
"%%%*%%. X+%$###$@o+X++o%%*****%%",
"#OOO#@X++@%%%***%%@@oo#$%%%*%$$O",
"OOO###@@o%$$%%*%%$OO#$$#$$%$$###",
"#O###$#$$#$$$$%*$$#O###$$$$$####",
"#OO###$$#$$%$%**$##O####$##$#$#$"
};
