/* XPM */
static char *diamond_ore1689669696[] = {
/* columns rows colors chars-per-pixel */
"32 32 11 1 ",
"  c #D5FFF6",
". c #77E7D1",
"X c #8DADB1",
"o c #A2A2A2",
"O c #1ED0D6",
"+ c gray56",
"@ c gray50",
"# c #747474",
"$ c #239698",
"% c #686868",
"& c #676767",
/* pixels */
"++++++++@###@#@@@#%%#%##@++@##@@",
"@+++@+@@@@###@@@###%%##@@@@@@@@@",
"@@####@###@@@##@++@++@%%#%%#@###",
"+@@@#@@@###@##@@#@##@@@#%&&@##@+",
"@@##%%%%%&###%%%%%#####@&.O&@##@",
"++@##%%& .o@@#%&&##@#@@&. .Oo@@@",
"@###@@#%O$X@@@&.O&#+@@@#XO$$o##@",
"#@++++++XX++@&. .O$X@@+++XXo#@@#",
"####@++#%%##@@oO$$X++++@@++###@@",
"@#@@@@@####&&&@oXX+@@%%+@@##@@@@",
"@++++@###&&.O$&@@@##%.O#%%#%%#++",
"@@++@@#&&.  .O$&###%. .$+######@",
"###@#+O. ..OO$$$o++#O.O$o@@@@@@@",
"@#####+oO.O$$O$X@###+$$X@@+++##@",
"####%%%%+XXoXXX###@##oX#####@@@#",
"@@@&&&#%########@&&&#####@@@@@@@",
"@@&. .&##@##@++&&. O&#@@##@####@",
"@#. .OO$o++@@@&..  .O$#@@@@@##@@",
"@@oO$$$X#@#@+#.O .O.O$$X+@@++@@@",
"@@+XXXX@@&&##@oXO$$O$Xo@@+++####",
"#%#@@@@@&..&%%#+XoXXX@@@##@##%#@",
"@@@@###@. O$+%%##@@@@@+&%%++@@@#",
"@@@##@@@XO$X+++@++@@@@&O$$%##@++",
"@@@@@@@@@XX++@@@@@##&&..O$$%###@",
"#@##@###@@+@@@###&.  ..OOO$$+%##",
"@@@#%%#&&+++@@@#O.  .OOO$$$o#%%#",
"@++++#&O.&@@##@@oO..O$$XXXo@#+++",
"+++@@&. O$+@@@###o$O$$XX#@@###@+",
"@@#@##O$$X+++###@@oooX@@++++++++",
"@#%%#@+XX++@@@###@@@@@@@@@+@+++@",
"#@@###@@@#@##%%#@+++++@#@#####@#",
"@@##@@@@@@@@#####@@++@@@@@##@@@@"
};
