/* XPM */
static char *emerald_ore1689669696[] = {
/* columns rows colors chars-per-pixel */
"32 32 13 1 ",
"  c #D9FFEB",
". c #41F384",
"X c #A2A2A2",
"o c #17DD62",
"O c gray56",
"+ c #17C544",
"@ c gray50",
"# c #747474",
"$ c #686868",
"% c #1C9829",
"& c #526B50",
"* c #375B3E",
"= c #007B18",
/* pixels */
"OOOOOOOO@###@#@@@#$$#$##@OO@##@@",
"@OOO@O@@@@###@@@###$$##@@@@@@@@@",
"@@####@###@@@##@OO@OO@$$#$$#@###",
"O@@@&&&@###@##@@#@##&&&#$$#@##@O",
"@@#&*.+&#####$$$$$#&*.+&@@@@@##@",
"OO@&. o%$$#@@#$####&. o%##@@@@@@",
"@###+o=%#@@@@@@OOOOO+o=%#@#$$##@",
"#@OOO%%X@@OO@##@@OO@X%%XO@@##@@#",
"####@OX#$$##&&##@@OOOXX@@OO###@@",
"@#@@@@@###&***&@@OO@@OOO@@##@@@@",
"@OOOO@##@&+++++&&@####@#$$#$$#OO",
"@@OO@@@@*+..+%%%*&#$$#$$$######@",
"###@#@O&+.. %==%&*O#####@@@@@@@@",
"@######*+.  .%==**&#$$#@@@O&&##@",
"####$$$*++%.==%+*&@&#@@##&*.+&@#",
"@@&&&$#*+%=%=%+#&@@@#####&. o%&@",
"@@&.+&@#+%%=%@XOOOOO@#@@##+o=%O@",
"@&. o%@@X+%%XXOOO@@####@@@O%%X@@",
"@@+o=%@##OXXOO@@OO@@#@OOO@@XX@@@",
"@@O%%O@@@@@##@OO@@@&&&&@@OOO####",
"#$#OX@@@###$$$#$##&+++*&##@##$#@",
"@@@@###@@#@@#$$##&+...%*&OOO@@@#",
"@@@##@@@@@OOOOO@O+.. +==%O@##@OO",
"@@@@@@@@@OOOO@@@.+.  .%==%@@###@",
"#@##@###@@O@@@##++%%+====%$#$$##",
"@@@#$$#@&&&O@@@#&=%=%==%+O###$$#",
"@OOOO#@&&.+&##@@#**%==%OO#@@#OOO",
"OOO@@@#&. o%@@####&*%%O##@@###@O",
"@@#@##@O+o=%O###@@#OOO@@OOOOOOOO",
"@#$$#@##O%%X@@###@@@@@@@@@O@OOO@",
"#@@###@@@XX##$$#@OOOOO@#@#####@#",
"@@##@@@@@@@@#####@@OO@@@@@##@@@@"
};
