/* XPM */
static char *gold_ore1689669696[] = {
/* columns rows colors chars-per-pixel */
"32 32 10 1 ",
"  c #FFFFB5",
". c #FCEE4B",
"X c #EB9D0E",
"o c #A2A2A2",
"O c gray56",
"+ c gray50",
"@ c #9C7020",
"# c #747474",
"$ c #686868",
"% c gray36",
/* pixels */
"OOOOOOOO+###+#+++#$$#$##+OO+##++",
"+OOO+O+$%%###+++###$$##+++++++++",
"++####+%@X$++##+OO+OO+$$#$$#+###",
"O+++#+$@XXO+#$$%#+##+++#$$$%%$+O",
"++##$$$O@o##$%@@%$#####+$%%@@%#+",
"OO+##$$#o$#$%@@@@$#+#++$%@@X@@$+",
"+###++###++%@@XX@%OO+++%@@X.X@O+",
"#+OOOOOO++$%@XX.X@O+++O%@@X..XO#",
"####+OO#$%%@XX.X.@@OOOOO@X..XoO+",
"+#+++++#%@@XX. ..X@o+OOOO@X@oO++",
"+OOOO+#$@@X..   .X@o##+#$OooO#OO",
"++OO+++O@@X. .. .@o$$#$$$######+",
"###+#+OOo@XX. ..X@o#####++++++++",
"+#######Oo@XX.XX@o##$$#+++$%%$#+",
"####$$$$$#oX.X@oo#+##++##$%@X@O#",
"+++##%%$##o@X@oo++++#####%@X.o++",
"++##%@X@%+#o@@oOOOOO+#++##OoO##+",
"+OO%@XX.X$Oo@oOOO++####+++++##++",
"++$@X...Xo#+oO++OO++#+OOO++OO+++",
"+++o@X.Xo++##+OO+++$%%%%%$OO####",
"#$#+Oooo###$$$#$##$%@@@@@%%$#$#+",
"++++###++#++#$$##$%@@@XXX@@%$++#",
"+++##+++++OOOOO+O%@@XX.X ..X@$OO",
"++++++$%%$OOO+$$++@XX.X.  ..X@O+",
"#+##$%@@@@%$+%@@$$o@X..  .XXoO##",
"+++$@@XX.X@%+@XoO++o@X...XooO$$#",
"+OO@X@X.  .@$#oO###O@XXXooO+#OOO",
"OOOO@X. . .XO+####++o@XoO++$%%+O",
"++#+OoX...XOO###++##+oo+OO$%@@$O",
"+#$$#OOXXXO+++###+++++++++$@XXO+",
"#++###+Ooo+##$$#+OOOOO+#+##oXo+#",
"++##++++++++#####++OO+++++##o+++"
};
