/* XPM */
static char *lodestone_side1689669696[] = {
/* columns rows colors chars-per-pixel */
"32 32 8 1 ",
"  c #38383F",
". c #4A4A53",
"X c #686868",
"o c #747474",
"O c gray50",
"+ c gray56",
"@ c #A2A4AC",
"# c #ABB1B8",
/* pixels */
"##@#@###@@++@@+@++++@+@@+@@@#@##",
"#@@+O++++++++++++++++++++++O+@@#",
"#@+O+O    ......XX..X.X...O+O+@#",
"#+OO+o XXoooXXoXoXXoXXooX.O+OO+@",
"@+++OoXXXXXooOOoOoXoOoXOX.oO+++#",
"#+OOoOXoXoOOXoOOoXoooXOOoXOooO+#",
"#+....XXOOoO        oOooXX..  +@",
"@+.XXoXXOooo ooOooo OooooOoXX +@",
"@O.XooOoXoOO oOoOoO OoOOOoOXo ++",
"@O.oOXoOo+o oOOOOOoo O+OoOoOX O+",
"+o.oo+O+OO ooOoOooOOo OO++OOo.o+",
"OO.oO++OO OoOO.  .oOOo OO++Oo.O+",
"+oXO+O   ooOo.    .Oooo   OOO.O+",
"OoXO+o oooOO.      .OOooo OoO.o+",
"Oo.oOo OoOo.        .+OoO +Oo.oO",
"+O.Ooo oOOO          O+Oo ooo.OO",
"OOXOoO.OoO+ . .   . .+OOO.oOo.O+",
"+O.+OO.Ooo+. .  .. ..++Oo.OoO.O+",
"+oX+Oo.oOoO@. ......@+OOO.+oOXOO",
"OoXOO+...Oo+@......@+O+...oO+XoO",
"OOXO+O@@+.Oo+@....@+++.+@@+OO.OO",
"+oX+O++@@+.OO+@@@@+O+.+@@+OOo.oO",
"+OXO+OO++@+.++++++++.+@++O++OXo+",
"OOXO++OO++@+.O++O+OX+@+++++O+.O+",
"OOXoOOO+O++O.+O++OOX++OO+OOOoX++",
"O+XXoOOO++OO.XXXXXXX+OO+OXXXXXO+",
"O+@@@+X+O++++@@@@@@+O+++OX+@@@+O",
"++++@@XO++O++++++OO++O+O+X@@+++O",
"++OO+@XoOO+O+OO+O+OO+OOooX@+OO++",
"O++O++XXXXOOXXXXXXXXXXOOXX@+O+++",
"O+++O+@@@@@++@@@+@++++@@@@+O+++O",
"+OOO+OO++O++OOO++++++OO+O++++OOO"
};
